<mxfile host="www.draw.io" modified="2019-11-21T16:06:08.187Z" agent="Mozilla/5.0 (Windows NT 10.0; Win64; x64) AppleWebKit/537.36 (KHTML, like Gecko) Chrome/77.0.3865.120 Safari/537.36 OPR/64.0.3417.92" etag="-QvzWHarizVwRUbYjEnM" version="12.2.8" type="github" pages="1">
  <diagram id="UzhWR-N8zCwfZSIEnC6z" name="Page-1">
    <mxGraphModel dx="1382" dy="795" grid="1" gridSize="10" guides="1" tooltips="1" connect="1" arrows="1" fold="1" page="1" pageScale="1" pageWidth="827" pageHeight="583" math="0" shadow="0">
      <root>
        <mxCell id="0"/>
        <mxCell id="1" parent="0"/>
        <mxCell id="ujCRCSMncX6ORW_Cc9Aw-1" value="10.0.0.254&lt;br&gt;AZURE" style="verticalLabelPosition=middle;html=1;verticalAlign=middle;align=center;strokeColor=none;fillColor=#00BEF2;shape=mxgraph.azure.cloud;labelPosition=center;" parent="1" vertex="1">
          <mxGeometry x="352" y="30" width="123" height="80" as="geometry"/>
        </mxCell>
        <mxCell id="ujCRCSMncX6ORW_Cc9Aw-20" style="edgeStyle=orthogonalEdgeStyle;rounded=0;orthogonalLoop=1;jettySize=auto;html=1;entryX=0.2;entryY=1;entryDx=0;entryDy=0;entryPerimeter=0;fontFamily=Tahoma;" parent="1" source="ujCRCSMncX6ORW_Cc9Aw-2" target="ujCRCSMncX6ORW_Cc9Aw-1" edge="1">
          <mxGeometry relative="1" as="geometry">
            <Array as="points">
              <mxPoint x="184" y="150"/>
              <mxPoint x="377" y="150"/>
            </Array>
          </mxGeometry>
        </mxCell>
        <mxCell id="ujCRCSMncX6ORW_Cc9Aw-2" value="SRV1&lt;br&gt;CentOS 7&lt;br&gt;10.0.0.1" style="aspect=fixed;pointerEvents=1;shadow=0;dashed=0;html=1;strokeColor=none;labelPosition=left;verticalLabelPosition=middle;verticalAlign=middle;align=right;fillColor=#00188D;shape=mxgraph.mscae.enterprise.server_generic;fontFamily=Tahoma;" parent="1" vertex="1">
          <mxGeometry x="172" y="200" width="24" height="50" as="geometry"/>
        </mxCell>
        <mxCell id="ujCRCSMncX6ORW_Cc9Aw-21" style="edgeStyle=orthogonalEdgeStyle;rounded=0;orthogonalLoop=1;jettySize=auto;html=1;fontFamily=Tahoma;" parent="1" source="ujCRCSMncX6ORW_Cc9Aw-3" target="ujCRCSMncX6ORW_Cc9Aw-1" edge="1">
          <mxGeometry relative="1" as="geometry">
            <Array as="points">
              <mxPoint x="420" y="130"/>
              <mxPoint x="420" y="130"/>
            </Array>
          </mxGeometry>
        </mxCell>
        <mxCell id="ujCRCSMncX6ORW_Cc9Aw-3" value="SRV2&lt;br&gt;CentOS 7&lt;br&gt;10.0.0.2" style="aspect=fixed;pointerEvents=1;shadow=0;dashed=0;html=1;strokeColor=none;labelPosition=left;verticalLabelPosition=middle;verticalAlign=middle;align=right;fillColor=#00188D;shape=mxgraph.mscae.enterprise.server_generic;fontFamily=Tahoma;" parent="1" vertex="1">
          <mxGeometry x="401" y="200" width="24" height="50" as="geometry"/>
        </mxCell>
        <mxCell id="ujCRCSMncX6ORW_Cc9Aw-22" style="edgeStyle=orthogonalEdgeStyle;rounded=0;orthogonalLoop=1;jettySize=auto;html=1;entryX=0.9;entryY=1;entryDx=0;entryDy=0;entryPerimeter=0;fontFamily=Tahoma;" parent="1" source="ujCRCSMncX6ORW_Cc9Aw-5" target="ujCRCSMncX6ORW_Cc9Aw-1" edge="1">
          <mxGeometry relative="1" as="geometry">
            <Array as="points">
              <mxPoint x="642" y="150"/>
              <mxPoint x="463" y="150"/>
            </Array>
          </mxGeometry>
        </mxCell>
        <mxCell id="ujCRCSMncX6ORW_Cc9Aw-5" value="SRV3&lt;br&gt;CentOS 7&lt;br&gt;10.0.0.3" style="aspect=fixed;pointerEvents=1;shadow=0;dashed=0;html=1;strokeColor=none;labelPosition=left;verticalLabelPosition=middle;verticalAlign=middle;align=right;fillColor=#00188D;shape=mxgraph.mscae.enterprise.server_generic;fontFamily=Tahoma;" parent="1" vertex="1">
          <mxGeometry x="630" y="200" width="24" height="50" as="geometry"/>
        </mxCell>
        <mxCell id="ujCRCSMncX6ORW_Cc9Aw-19" style="edgeStyle=orthogonalEdgeStyle;rounded=0;orthogonalLoop=1;jettySize=auto;html=1;entryX=0;entryY=1;entryDx=0;entryDy=0;entryPerimeter=0;fontFamily=Tahoma;" parent="1" source="ujCRCSMncX6ORW_Cc9Aw-8" target="ujCRCSMncX6ORW_Cc9Aw-2" edge="1">
          <mxGeometry relative="1" as="geometry"/>
        </mxCell>
        <mxCell id="ujCRCSMncX6ORW_Cc9Aw-8" value="OpenLDAP" style="aspect=fixed;pointerEvents=1;shadow=0;dashed=0;html=1;strokeColor=none;labelPosition=center;verticalLabelPosition=bottom;verticalAlign=top;align=center;fillColor=#00188D;shape=mxgraph.mscae.enterprise.database_server;fontFamily=Tahoma;" parent="1" vertex="1">
          <mxGeometry x="110" y="291" width="38" height="50" as="geometry"/>
        </mxCell>
        <mxCell id="ujCRCSMncX6ORW_Cc9Aw-17" style="edgeStyle=orthogonalEdgeStyle;rounded=0;orthogonalLoop=1;jettySize=auto;html=1;entryX=0;entryY=1;entryDx=0;entryDy=0;entryPerimeter=0;fontFamily=Tahoma;" parent="1" source="ujCRCSMncX6ORW_Cc9Aw-9" target="ujCRCSMncX6ORW_Cc9Aw-3" edge="1">
          <mxGeometry relative="1" as="geometry"/>
        </mxCell>
        <mxCell id="ujCRCSMncX6ORW_Cc9Aw-9" value="OpenLDAP" style="aspect=fixed;pointerEvents=1;shadow=0;dashed=0;html=1;strokeColor=none;labelPosition=center;verticalLabelPosition=bottom;verticalAlign=top;align=center;fillColor=#00188D;shape=mxgraph.mscae.enterprise.database_server;fontFamily=Tahoma;" parent="1" vertex="1">
          <mxGeometry x="340" y="290" width="38" height="50" as="geometry"/>
        </mxCell>
        <mxCell id="ujCRCSMncX6ORW_Cc9Aw-14" style="edgeStyle=orthogonalEdgeStyle;rounded=0;orthogonalLoop=1;jettySize=auto;html=1;entryX=0;entryY=1;entryDx=0;entryDy=0;entryPerimeter=0;fontFamily=Tahoma;" parent="1" source="ujCRCSMncX6ORW_Cc9Aw-10" target="ujCRCSMncX6ORW_Cc9Aw-5" edge="1">
          <mxGeometry relative="1" as="geometry"/>
        </mxCell>
        <mxCell id="ujCRCSMncX6ORW_Cc9Aw-10" value="OpenLDAP" style="aspect=fixed;pointerEvents=1;shadow=0;dashed=0;html=1;strokeColor=none;labelPosition=center;verticalLabelPosition=bottom;verticalAlign=top;align=center;fillColor=#00188D;shape=mxgraph.mscae.enterprise.database_server;fontFamily=Tahoma;" parent="1" vertex="1">
          <mxGeometry x="570" y="290" width="38" height="50" as="geometry"/>
        </mxCell>
        <mxCell id="ujCRCSMncX6ORW_Cc9Aw-18" style="edgeStyle=orthogonalEdgeStyle;rounded=0;orthogonalLoop=1;jettySize=auto;html=1;entryX=1;entryY=1;entryDx=0;entryDy=0;entryPerimeter=0;fontFamily=Tahoma;" parent="1" source="ujCRCSMncX6ORW_Cc9Aw-11" target="ujCRCSMncX6ORW_Cc9Aw-2" edge="1">
          <mxGeometry relative="1" as="geometry">
            <Array as="points">
              <mxPoint x="196" y="315"/>
            </Array>
          </mxGeometry>
        </mxCell>
        <mxCell id="ujCRCSMncX6ORW_Cc9Aw-11" value="FTP" style="aspect=fixed;pointerEvents=1;shadow=0;dashed=0;html=1;strokeColor=none;labelPosition=center;verticalLabelPosition=bottom;verticalAlign=top;align=center;fillColor=#00188D;shape=mxgraph.mscae.enterprise.application_server;fontFamily=Tahoma;" parent="1" vertex="1">
          <mxGeometry x="210" y="290" width="43" height="50" as="geometry"/>
        </mxCell>
        <mxCell id="ujCRCSMncX6ORW_Cc9Aw-16" style="edgeStyle=orthogonalEdgeStyle;rounded=0;orthogonalLoop=1;jettySize=auto;html=1;entryX=1;entryY=1;entryDx=0;entryDy=0;entryPerimeter=0;fontFamily=Tahoma;" parent="1" source="ujCRCSMncX6ORW_Cc9Aw-12" target="ujCRCSMncX6ORW_Cc9Aw-3" edge="1">
          <mxGeometry relative="1" as="geometry"/>
        </mxCell>
        <mxCell id="ujCRCSMncX6ORW_Cc9Aw-12" value="FTP" style="aspect=fixed;pointerEvents=1;shadow=0;dashed=0;html=1;strokeColor=none;labelPosition=center;verticalLabelPosition=bottom;verticalAlign=top;align=center;fillColor=#00188D;shape=mxgraph.mscae.enterprise.application_server;fontFamily=Tahoma;" parent="1" vertex="1">
          <mxGeometry x="450" y="290" width="43" height="50" as="geometry"/>
        </mxCell>
        <mxCell id="ujCRCSMncX6ORW_Cc9Aw-13" value="FTP" style="aspect=fixed;pointerEvents=1;shadow=0;dashed=0;html=1;strokeColor=none;labelPosition=center;verticalLabelPosition=bottom;verticalAlign=top;align=center;fillColor=#00188D;shape=mxgraph.mscae.enterprise.application_server;fontFamily=Tahoma;" parent="1" vertex="1">
          <mxGeometry x="685" y="290" width="43" height="50" as="geometry"/>
        </mxCell>
        <mxCell id="ujCRCSMncX6ORW_Cc9Aw-23" value="Zabbix" style="aspect=fixed;pointerEvents=1;shadow=0;dashed=0;html=1;strokeColor=none;labelPosition=center;verticalLabelPosition=bottom;verticalAlign=top;align=center;fillColor=#00188D;shape=mxgraph.mscae.enterprise.web_server;fontFamily=Tahoma;" parent="1" vertex="1">
          <mxGeometry x="165" y="360" width="38" height="50" as="geometry"/>
        </mxCell>
        <mxCell id="N5rPIbxdm8_ZBmd3SqsW-1" value="Bordeaux" style="ellipse;whiteSpace=wrap;html=1;fillColor=#d5e8d4;strokeColor=#82b366;opacity=40;labelPosition=center;verticalLabelPosition=bottom;align=center;verticalAlign=top;fontFamily=Tahoma;" vertex="1" parent="1">
          <mxGeometry x="80" y="100" width="199" height="360" as="geometry"/>
        </mxCell>
        <mxCell id="N5rPIbxdm8_ZBmd3SqsW-3" value="Toulouse" style="ellipse;whiteSpace=wrap;html=1;fillColor=#ffe6cc;strokeColor=#d79b00;opacity=40;labelPosition=center;verticalLabelPosition=bottom;align=center;verticalAlign=top;fontFamily=Tahoma;" vertex="1" parent="1">
          <mxGeometry x="306" y="160" width="204" height="270" as="geometry"/>
        </mxCell>
        <mxCell id="N5rPIbxdm8_ZBmd3SqsW-4" value="Paris" style="ellipse;whiteSpace=wrap;html=1;fillColor=#f8cecc;strokeColor=#b85450;opacity=40;labelPosition=center;verticalLabelPosition=bottom;align=center;verticalAlign=top;fontFamily=Tahoma;" vertex="1" parent="1">
          <mxGeometry x="542.5" y="100" width="199" height="360" as="geometry"/>
        </mxCell>
        <mxCell id="N5rPIbxdm8_ZBmd3SqsW-5" style="edgeStyle=orthogonalEdgeStyle;rounded=0;orthogonalLoop=1;jettySize=auto;html=1;fontFamily=Tahoma;entryX=1;entryY=1;entryDx=0;entryDy=0;entryPerimeter=0;" edge="1" parent="1" source="ujCRCSMncX6ORW_Cc9Aw-13" target="ujCRCSMncX6ORW_Cc9Aw-5">
          <mxGeometry relative="1" as="geometry">
            <mxPoint x="685" y="315" as="sourcePoint"/>
            <mxPoint x="780" y="280" as="targetPoint"/>
          </mxGeometry>
        </mxCell>
      </root>
    </mxGraphModel>
  </diagram>
</mxfile>
